<svg width="128" height="128" viewBox="0 0 128 128" fill="none" xmlns="http://www.w3.org/2000/svg" role="img" aria-label="Rosetta icon">
  <defs>
    <linearGradient id="sg" x1="0" y1="0" x2="1" y2="1">
      <stop offset="0" stop-color="#0e7490"/>
      <stop offset="0.5" stop-color="#1e3a8a"/>
      <stop offset="1" stop-color="#4338ca"/>
    </linearGradient>
    <filter id="g" x="-50%" y="-50%" width="200%" height="200%">
      <feGaussianBlur stdDeviation="2.6" result="b"/>
      <feMerge><feMergeNode in="b"/><feMergeNode in="SourceGraphic"/></feMerge>
    </filter>
  </defs>
  <rect x="6" y="6" width="116" height="116" rx="26" fill="url(#sg)"/>
  <rect x="46" y="6" width="2" height="116" fill="#0a0f1f" opacity="0.30"/>
  <rect x="82" y="6" width="2" height="116" fill="#0a0f1f" opacity="0.30"/>
  <g stroke="#bfe9f2" stroke-width="2.4" stroke-linecap="round" opacity="0.5">
    <path d="M18 30h18M18 46h13M18 62h19M18 78h11M18 94h18"/>
    <path d="M56 28h18M56 44h14M56 92h18"/>
    <path d="M92 30h20M92 46h15M92 62h18M92 78h13M92 94h19"/>
  </g>
  <g filter="url(#g)">
    <line x1="44" y1="84" x2="70" y2="50" stroke="#22d3ee" stroke-width="3.4"/>
    <line x1="70" y1="50" x2="82" y2="88" stroke="#22d3ee" stroke-width="3.4"/>
    <line x1="44" y1="84" x2="82" y2="88" stroke="#22d3ee" stroke-width="3.4"/>
    <circle cx="44" cy="84" r="9" fill="#22d3ee"/>
    <circle cx="70" cy="50" r="9" fill="#22d3ee"/>
    <circle cx="82" cy="88" r="9" fill="#22d3ee"/>
  </g>
</svg>
